<svg width="56" height="56" viewBox="0 0 56 56" fill="none" xmlns="http://www.w3.org/2000/svg">
<path d="M0 28C0 12.536 12.536 0 28 0C43.464 0 56 12.536 56 28C56 43.464 43.464 56 28 56C12.536 56 0 43.464 0 28Z" fill="#274C5B"/>
<path d="M25.7779 39.0001C26.4529 39.0001 27.0001 38.4529 27.0001 37.7779C27.0001 37.1029 26.4529 36.5557 25.7779 36.5557C25.1029 36.5557 24.5557 37.1029 24.5557 37.7779C24.5557 38.4529 25.1029 39.0001 25.7779 39.0001Z" fill="white" stroke="white" stroke-width="1.5" stroke-linecap="round" stroke-linejoin="round"/>
<path d="M34.3336 39.0001C35.0086 39.0001 35.5558 38.4529 35.5558 37.7779C35.5558 37.1029 35.0086 36.5557 34.3336 36.5557C33.6585 36.5557 33.1113 37.1029 33.1113 37.7779C33.1113 38.4529 33.6585 39.0001 34.3336 39.0001Z" fill="white" stroke="white" stroke-width="1.5" stroke-linecap="round" stroke-linejoin="round"/>
<path d="M16 17H19.7819L22.6183 33.0731H37.7459" stroke="white" stroke-width="2" stroke-linecap="round" stroke-linejoin="round"/>
<path d="M22.1112 29.1837L37.3584 29.2907C37.4677 29.2908 37.5737 29.2529 37.6583 29.1837C37.7429 29.1144 37.8008 29.0179 37.8223 28.9107L39.5241 20.4014C39.5378 20.3328 39.5362 20.262 39.5192 20.1941C39.5023 20.1262 39.4705 20.063 39.4261 20.0089C39.3817 19.9548 39.3259 19.9112 39.2626 19.8813C39.1993 19.8514 39.1302 19.8359 39.0602 19.8359H20.5674" stroke="white" stroke-width="2" stroke-linecap="round" stroke-linejoin="round"/>
</svg>
