<svg width="60" height="60" viewBox="0 0 60 60" fill="none" xmlns="http://www.w3.org/2000/svg">
<path d="M0 30C0 13.4315 13.4315 0 30 0C46.5685 0 60 13.4315 60 30C60 46.5685 46.5685 60 30 60C13.4315 60 0 46.5685 0 30Z" fill="#EFF6F1"/>
<path d="M29.7966 20C24.3866 20 20 24.3847 20 29.7923C20 33.801 22.4142 37.2458 25.8649 38.7627C25.8386 38.0807 25.8605 37.2589 26.0354 36.5157C26.2235 35.7201 27.295 31.178 27.295 31.178C27.295 31.178 26.9801 30.5529 26.9801 29.6305C26.9801 28.1792 27.8198 27.095 28.8695 27.095C29.7617 27.095 30.1903 27.7639 30.1903 28.5639C30.1903 29.46 29.6173 30.7977 29.3243 32.0392C29.0794 33.0797 29.8448 33.9234 30.8725 33.9234C32.7269 33.9234 33.9777 31.5409 33.9777 28.7169C33.9777 26.5704 32.5301 24.9661 29.9016 24.9661C26.932 24.9661 25.0776 27.1824 25.0776 29.6567C25.0776 30.5092 25.3313 31.1125 25.7249 31.5759C25.9042 31.7901 25.9305 31.8775 25.8649 32.1223C25.8168 32.3015 25.7118 32.7343 25.6637 32.9092C25.5981 33.1584 25.3969 33.2458 25.1739 33.154C23.8049 32.5944 23.1664 31.0994 23.1664 29.4119C23.1664 26.6316 25.515 23.2961 30.1684 23.2961C33.9077 23.2961 36.37 26.0021 36.37 28.9048C36.37 32.7474 34.2314 35.6152 31.0824 35.6152C30.0241 35.6152 29.0313 35.0425 28.6901 34.3955C28.6901 34.3955 28.1216 36.6512 27.9991 37.0884C27.7936 37.8447 27.3868 38.5966 27.0151 39.1867C27.9169 39.4526 28.8521 39.5881 29.7923 39.5889C35.2023 39.5889 39.5889 35.2042 39.5889 29.7966C39.5889 24.389 35.2067 20 29.7966 20Z" fill="#274C5B"/>
</svg>
