<svg aria-hidden="true" style="position: absolute; width: 0; height: 0; overflow: hidden;" version="1.1" xmlns="http://www.w3.org/2000/svg" xmlns:xlink="http://www.w3.org/1999/xlink">
<defs>
<symbol id="arrow" viewBox="0 0 32 32">
<path fill="none" stroke="#fff" stroke-width="1.8824" stroke-miterlimit="4" stroke-linecap="round" stroke-linejoin="round" style="stroke: var(--color1, #fff)" d="M28.308 16h-26.425M17.086 5.647l13.032 10.353-13.032 10.353v-20.706z"></path>
</symbol>
<symbol id="cart" viewBox="0 0 32 32">
<path fill="#274c5b" style="fill: var(--color2, #274c5b)" d="M0 16c0-8.837 7.163-16 16-16s16 7.163 16 16c0 8.837-7.163 16-16 16s-16-7.163-16-16z"></path>
<path fill="#fff" stroke="#fff" stroke-width="0.8571" stroke-miterlimit="4" stroke-linecap="round" stroke-linejoin="round" style="fill: var(--color1, #fff); stroke: var(--color1, #fff)" d="M14.73 22.286c0.386 0 0.698-0.313 0.698-0.698s-0.313-0.698-0.698-0.698c-0.386 0-0.698 0.313-0.698 0.698s0.313 0.698 0.698 0.698z"></path>
<path fill="#fff" stroke="#fff" stroke-width="0.8571" stroke-miterlimit="4" stroke-linecap="round" stroke-linejoin="round" style="fill: var(--color1, #fff); stroke: var(--color1, #fff)" d="M19.619 22.286c0.386 0 0.698-0.313 0.698-0.698s-0.313-0.698-0.698-0.698c-0.386 0-0.698 0.313-0.698 0.698s0.313 0.698 0.698 0.698z"></path>
<path fill="none" stroke="#fff" stroke-width="1.1429" stroke-miterlimit="4" stroke-linecap="round" stroke-linejoin="round" style="stroke: var(--color1, #fff)" d="M9.143 9.714h2.161l1.621 9.185h8.644"></path>
<path fill="none" stroke="#fff" stroke-width="1.1429" stroke-miterlimit="4" stroke-linecap="round" stroke-linejoin="round" style="stroke: var(--color1, #fff)" d="M12.635 16.676l8.713 0.061c0.062 0 0.123-0.022 0.171-0.061s0.081-0.095 0.094-0.156l0.972-4.862c0.008-0.039 0.007-0.080-0.003-0.118s-0.028-0.075-0.053-0.106-0.057-0.056-0.093-0.073c-0.036-0.017-0.076-0.026-0.116-0.026h-10.567"></path>
</symbol>
<symbol id="fb-logo" viewBox="0 0 32 32">
<path fill="#eff6f1" style="fill: var(--color3, #eff6f1)" d="M0 16c0-8.837 7.163-16 16-16s16 7.163 16 16c0 8.837-7.163 16-16 16s-16-7.163-16-16z"></path>
<path fill="#274c5b" style="fill: var(--color2, #274c5b)" d="M20.951 16.152c0-2.734-2.302-4.952-5.142-4.952s-5.142 2.217-5.142 4.952c0 2.471 1.88 4.52 4.339 4.892v-3.46h-1.306v-1.432h1.306v-1.091c0-1.241 0.768-1.927 1.942-1.927 0.563 0 1.151 0.097 1.151 0.097v1.219h-0.649c-0.638 0-0.838 0.382-0.838 0.774v0.928h1.426l-0.228 1.432h-1.198v3.46c2.459-0.372 4.339-2.42 4.339-4.892z"></path>
</symbol>
<symbol id="instagram-logo" viewBox="0 0 32 32">
<path fill="#eff6f1" style="fill: var(--color3, #eff6f1)" d="M0 16c0-8.837 7.163-16 16-16s16 7.163 16 16c0 8.837-7.163 16-16 16s-16-7.163-16-16z"></path>
<path fill="#274c5b" style="fill: var(--color2, #274c5b)" d="M17.951 12.025c0.568 0.002 1.112 0.22 1.513 0.606s0.628 0.91 0.63 1.457v4.126c-0.002 0.547-0.228 1.071-0.63 1.457s-0.945 0.604-1.513 0.606h-4.285c-0.568-0.002-1.112-0.22-1.513-0.606s-0.628-0.91-0.629-1.457v-4.126c0.002-0.547 0.228-1.071 0.629-1.457s0.945-0.605 1.513-0.606h4.285zM17.951 11.2h-4.285c-1.65 0-3 1.3-3 2.889v4.126c0 1.589 1.35 2.888 3 2.888h4.285c1.65 0 3-1.3 3-2.888v-4.126c0-1.589-1.35-2.889-3-2.889z"></path>
<path fill="#274c5b" style="fill: var(--color2, #274c5b)" d="M18.594 14.089c-0.127 0-0.251-0.036-0.357-0.104s-0.188-0.165-0.237-0.278c-0.049-0.113-0.061-0.238-0.037-0.358s0.086-0.23 0.176-0.317c0.090-0.087 0.204-0.146 0.329-0.169s0.254-0.012 0.371 0.035c0.117 0.047 0.218 0.126 0.288 0.228s0.108 0.221 0.108 0.344c0 0.081-0.016 0.162-0.049 0.237s-0.080 0.144-0.139 0.201c-0.060 0.057-0.131 0.103-0.209 0.134s-0.162 0.047-0.246 0.047zM15.809 14.501c0.339 0 0.67 0.097 0.952 0.278s0.502 0.439 0.631 0.741c0.13 0.302 0.164 0.633 0.098 0.954s-0.229 0.614-0.469 0.845c-0.24 0.231-0.545 0.388-0.878 0.452s-0.677 0.031-0.99-0.094c-0.313-0.125-0.581-0.337-0.769-0.608s-0.289-0.591-0.289-0.917c0-0.438 0.181-0.857 0.503-1.167s0.757-0.483 1.212-0.484zM15.809 13.676c-0.508 0-1.006 0.145-1.428 0.417s-0.752 0.659-0.947 1.111c-0.195 0.452-0.246 0.95-0.146 1.43s0.344 0.921 0.704 1.268c0.36 0.346 0.818 0.582 1.316 0.678s1.016 0.047 1.485-0.141c0.47-0.187 0.871-0.505 1.154-0.912s0.433-0.886 0.433-1.376c0-0.657-0.271-1.286-0.753-1.751s-1.136-0.725-1.818-0.725z"></path>
</symbol>
<symbol id="organicfood" viewBox="0 0 32 32">
<path fill="#fff4cd" style="fill: var(--color4, #fff4cd)" d="M7.245 22.038c4.001 0 7.245-3.244 7.245-7.245s-3.244-7.245-7.245-7.245c-4.001 0-7.245 3.244-7.245 7.245s3.244 7.245 7.245 7.245z"></path>
<path fill="#000" style="fill: var(--color5, #000)" d="M32 2.113h-27.774v27.774h27.774v-27.774z"></path>
</symbol>
<symbol id="pinterest-logo" viewBox="0 0 32 32">
<path fill="#eff6f1" style="fill: var(--color3, #eff6f1)" d="M0 16c0-8.837 7.163-16 16-16s16 7.163 16 16c0 8.837-7.163 16-16 16s-16-7.163-16-16z"></path>
<path fill="#274c5b" style="fill: var(--color2, #274c5b)" d="M15.892 10.667c-2.885 0-5.225 2.338-5.225 5.223 0 2.138 1.288 3.975 3.128 4.784-0.014-0.364-0.002-0.802 0.091-1.198 0.1-0.424 0.672-2.847 0.672-2.847s-0.168-0.333-0.168-0.825c0-0.774 0.448-1.352 1.008-1.352 0.476 0 0.704 0.357 0.704 0.783 0 0.478-0.306 1.191-0.462 1.854-0.131 0.555 0.278 1.005 0.826 1.005 0.989 0 1.656-1.271 1.656-2.777 0-1.145-0.772-2-2.174-2-1.584 0-2.573 1.182-2.573 2.502 0 0.455 0.135 0.776 0.345 1.024 0.096 0.114 0.11 0.161 0.075 0.291-0.026 0.096-0.082 0.326-0.107 0.42-0.035 0.133-0.142 0.18-0.261 0.131-0.73-0.298-1.071-1.096-1.071-1.996 0-1.483 1.253-3.262 3.734-3.262 1.994 0 3.308 1.443 3.308 2.991 0 2.049-1.141 3.579-2.82 3.579-0.564 0-1.094-0.305-1.276-0.651 0 0-0.303 1.203-0.369 1.436-0.11 0.403-0.327 0.804-0.525 1.119 0.481 0.142 0.98 0.214 1.481 0.215 2.885 0 5.225-2.338 5.225-5.223s-2.337-5.225-5.223-5.225z"></path>
</symbol>
<symbol id="quality" viewBox="0 0 32 32">
<path fill="#fff4cd" style="fill: var(--color4, #fff4cd)" d="M6.857 28.571c3.787 0 6.857-3.070 6.857-6.857s-3.070-6.857-6.857-6.857c-3.787 0-6.857 3.070-6.857 6.857s3.070 6.857 6.857 6.857z"></path>
<path fill="#000" style="fill: var(--color5, #000)" d="M32 1.143h-29.714v29.714h29.714v-29.714z"></path>
</symbol>
<symbol id="sprite" viewBox="0 0 32 32">
<path fill="#000" style="fill: var(--color5, #000)" d="M32 1.143h-29.714v29.714h29.714v-29.714z"></path>
</symbol>
<symbol id="star" viewBox="0 0 32 32">
<path fill="#ffa858" style="fill: var(--color6, #ffa858)" d="M14.355 2.828c0.429-1.257 2.207-1.257 2.634 0l2.739 8.045c0.191 0.564 0.721 0.943 1.316 0.943h8.719c1.363 0 1.913 1.758 0.793 2.535l-6.941 4.814c-0.511 0.354-0.723 1.003-0.525 1.591l2.678 7.865c0.431 1.271-1.007 2.356-2.111 1.591l-7.193-4.989c-0.477-0.331-1.109-0.331-1.586 0l-7.194 4.989c-1.102 0.765-2.542-0.321-2.109-1.591l2.677-7.865c0.2-0.588-0.014-1.238-0.525-1.591l-6.941-4.814c-1.12-0.777-0.571-2.535 0.793-2.535h8.719c0.595 0 1.126-0.379 1.318-0.943l2.738-8.045z"></path>
</symbol>
<symbol id="twitter-logo" viewBox="0 0 32 32">
<path fill="#eff6f1" style="fill: var(--color3, #eff6f1)" d="M0 16c0-8.837 7.163-16 16-16s16 7.163 16 16c0 8.837-7.163 16-16 16s-16-7.163-16-16z"></path>
<path fill="#274c5b" style="fill: var(--color2, #274c5b)" d="M21.685 12.778c-0.413 0.18-0.851 0.298-1.298 0.351 0.47-0.275 0.824-0.713 0.995-1.23-0.445 0.26-0.93 0.442-1.436 0.539-0.213-0.223-0.469-0.401-0.753-0.522s-0.589-0.183-0.898-0.183c-1.249 0-2.26 0.996-2.26 2.224-0.001 0.171 0.019 0.341 0.058 0.507-0.896-0.042-1.773-0.271-2.575-0.671s-1.512-0.964-2.085-1.654c-0.201 0.338-0.307 0.724-0.307 1.118 0 0.771 0.402 1.453 1.010 1.853-0.36-0.009-0.713-0.104-1.028-0.278v0.028c0 1.079 0.78 1.976 1.813 2.181-0.194 0.052-0.394 0.078-0.595 0.078-0.143 0-0.285-0.014-0.425-0.041 0.287 0.884 1.123 1.527 2.113 1.545-0.805 0.62-1.792 0.955-2.808 0.953-0.18-0-0.36-0.011-0.539-0.032 1.033 0.66 2.234 1.009 3.46 1.005 4.163 0 6.438-3.391 6.438-6.331 0-0.096-0.003-0.193-0.007-0.287 0.442-0.314 0.823-0.704 1.128-1.152z"></path>
</symbol>
<symbol id="user-logo" viewBox="0 0 32 32">
<path fill="#7eb693" style="fill: var(--color7, #7eb693)" d="M21.306 2.327c-1.347-1.501-3.229-2.327-5.306-2.327-2.088 0-3.976 0.821-5.317 2.313-1.355 1.508-2.016 3.557-1.861 5.77 0.307 4.366 3.527 7.917 7.178 7.917s6.865-3.551 7.177-7.916c0.157-2.193-0.508-4.238-1.871-5.757zM28.184 32h-24.369c-0.319 0.004-0.635-0.065-0.925-0.202s-0.546-0.34-0.751-0.593c-0.45-0.555-0.631-1.313-0.497-2.079 0.584-3.344 2.408-6.154 5.274-8.126 2.546-1.751 5.772-2.714 9.083-2.714s6.537 0.964 9.083 2.714c2.866 1.972 4.689 4.781 5.274 8.125 0.134 0.766-0.047 1.524-0.497 2.079-0.204 0.253-0.461 0.455-0.751 0.593s-0.606 0.207-0.925 0.203z"></path>
</symbol>
</defs>
</svg>
