<svg width="23" height="21" viewBox="0 0 23 21" fill="none" xmlns="http://www.w3.org/2000/svg">
<path d="M10.318 1.03276C10.626 0.129056 11.904 0.129056 12.211 1.03276L14.18 6.81519C14.317 7.22046 14.698 7.49297 15.126 7.49297H21.393C22.373 7.49297 22.768 8.75622 21.963 9.31472L16.974 12.7746C16.607 13.029 16.454 13.4958 16.597 13.9185L18.522 19.5716C18.832 20.4848 17.798 21.2653 17.005 20.7155L11.835 17.1296C11.492 16.8919 11.038 16.8919 10.695 17.1296L5.52403 20.7155C4.73203 21.2653 3.69703 20.4848 4.00803 19.5716L5.93203 13.9185C6.07603 13.4958 5.92203 13.029 5.55503 12.7746L0.566425 9.31472C-0.238875 8.75622 0.156326 7.49297 1.13633 7.49297H7.40303C7.83103 7.49297 8.21203 7.22046 8.35003 6.81519L10.318 1.03276Z" fill="#FFA858"/>
</svg>
